<svg xmlns="http://www.w3.org/2000/svg" viewBox="0 0 1600 1000" width="1600" height="1000"><rect width="1600" height="1000" fill="#06030b"/><g stroke="#251a38" stroke-width="2"><line x1="0" y1="760" x2="-1120.0" y2="1000"/><line x1="100" y1="760" x2="-880.0" y2="1000"/><line x1="200" y1="760" x2="-640.0" y2="1000"/><line x1="300" y1="760" x2="-400.0" y2="1000"/><line x1="400" y1="760" x2="-160.0" y2="1000"/><line x1="500" y1="760" x2="80.0" y2="1000"/><line x1="600" y1="760" x2="320.0" y2="1000"/><line x1="700" y1="760" x2="560.0" y2="1000"/><line x1="800" y1="760" x2="800.0" y2="1000"/><line x1="900" y1="760" x2="1040.0" y2="1000"/><line x1="1000" y1="760" x2="1280.0" y2="1000"/><line x1="1100" y1="760" x2="1520.0" y2="1000"/><line x1="1200" y1="760" x2="1760.0" y2="1000"/><line x1="1300" y1="760" x2="2000.0" y2="1000"/><line x1="1400" y1="760" x2="2240.0" y2="1000"/><line x1="1500" y1="760" x2="2480.0" y2="1000"/><line x1="1600" y1="760" x2="2720.0" y2="1000"/><line x1="0" y1="800" x2="1600" y2="800"/><line x1="0" y1="860" x2="1600" y2="860"/><line x1="0" y1="940" x2="1600" y2="940"/></g><line x1="0" y1="760" x2="1600" y2="760" stroke="#3a2b55" stroke-width="2"/><path d="M380 560 L1220 560 L1220 590 L380 590 Z" fill="none" stroke="#ece6ff" stroke-width="6" stroke-linejoin="round" stroke-linecap="round"/><path d="M420 590 L420 760 M1180 590 L1180 760" fill="none" stroke="#ece6ff" stroke-width="6" stroke-linejoin="round" stroke-linecap="round"/><rect x="560" y="260" width="480" height="280" rx="12" fill="#130c20" stroke="#ece6ff" stroke-width="6"/><rect x="590" y="290" width="420" height="220" rx="6" fill="#06030b" /><path d="M620 460 L700 400 L780 430 L880 340 L980 370" fill="none" stroke="#b026ff" stroke-width="6" stroke-linejoin="round" stroke-linecap="round"/><rect x="780" y="540" width="40" height="20" rx="2" fill="#ece6ff" /><rect x="1080" y="400" width="90" height="160" rx="8" fill="#130c20" stroke="#22e6ff" stroke-width="6"/><rect x="620" y="570" width="300" height="10" rx="4" fill="#3a2b55" /></svg>