<svg xmlns="http://www.w3.org/2000/svg" viewBox="0 0 1600 1000" width="1600" height="1000"><rect width="1600" height="1000" fill="#06030b"/><g stroke="#251a38" stroke-width="2"><line x1="0" y1="760" x2="-1120.0" y2="1000"/><line x1="100" y1="760" x2="-880.0" y2="1000"/><line x1="200" y1="760" x2="-640.0" y2="1000"/><line x1="300" y1="760" x2="-400.0" y2="1000"/><line x1="400" y1="760" x2="-160.0" y2="1000"/><line x1="500" y1="760" x2="80.0" y2="1000"/><line x1="600" y1="760" x2="320.0" y2="1000"/><line x1="700" y1="760" x2="560.0" y2="1000"/><line x1="800" y1="760" x2="800.0" y2="1000"/><line x1="900" y1="760" x2="1040.0" y2="1000"/><line x1="1000" y1="760" x2="1280.0" y2="1000"/><line x1="1100" y1="760" x2="1520.0" y2="1000"/><line x1="1200" y1="760" x2="1760.0" y2="1000"/><line x1="1300" y1="760" x2="2000.0" y2="1000"/><line x1="1400" y1="760" x2="2240.0" y2="1000"/><line x1="1500" y1="760" x2="2480.0" y2="1000"/><line x1="1600" y1="760" x2="2720.0" y2="1000"/><line x1="0" y1="800" x2="1600" y2="800"/><line x1="0" y1="860" x2="1600" y2="860"/><line x1="0" y1="940" x2="1600" y2="940"/></g><line x1="0" y1="760" x2="1600" y2="760" stroke="#3a2b55" stroke-width="2"/><path d="M520 640 L1000 640 L1040 560 L560 560 Z" fill="none" stroke="#ece6ff" stroke-width="6" stroke-linejoin="round" stroke-linecap="round"/><path d="M600 560 L600 440 L800 440 L840 560" fill="none" stroke="#ece6ff" stroke-width="6" stroke-linejoin="round" stroke-linecap="round"/><path d="M840 520 L1060 300 L1260 420" fill="none" stroke="#b026ff" stroke-width="14" stroke-linejoin="round" stroke-linecap="round"/><path d="M1260 420 L1300 560 L1200 600" fill="none" stroke="#22e6ff" stroke-width="10" stroke-linejoin="round" stroke-linecap="round"/><rect x="480" y="660" width="600" height="80" rx="40" fill="#130c20" stroke="#ece6ff" stroke-width="6"/><circle cx="540" cy="700" r="22" fill="none" stroke="#a397bd" stroke-width="5"/><circle cx="620" cy="700" r="22" fill="none" stroke="#a397bd" stroke-width="5"/><circle cx="700" cy="700" r="22" fill="none" stroke="#a397bd" stroke-width="5"/><circle cx="780" cy="700" r="22" fill="none" stroke="#a397bd" stroke-width="5"/><circle cx="860" cy="700" r="22" fill="none" stroke="#a397bd" stroke-width="5"/><circle cx="940" cy="700" r="22" fill="none" stroke="#a397bd" stroke-width="5"/><circle cx="1020" cy="700" r="22" fill="none" stroke="#a397bd" stroke-width="5"/></svg>